<svg width="94" height="94" viewBox="0 0 94 94" fill="none" xmlns="http://www.w3.org/2000/svg">
<circle cx="47" cy="47" r="47" fill="#D9D9D9"/>
<path d="M47 47C50.1645 47 53.2579 46.0616 55.8891 44.3035C58.5203 42.5454 60.5711 40.0466 61.7821 37.1229C62.9931 34.1993 63.3099 30.9823 62.6926 27.8786C62.0752 24.7749 60.5514 21.9239 58.3137 19.6863C56.0761 17.4487 53.2251 15.9248 50.1214 15.3074C47.0177 14.6901 43.8007 15.0069 40.8771 16.2179C37.9534 17.4289 35.4546 19.4797 33.6965 22.1109C31.9384 24.7421 31 27.8355 31 31C31.0042 35.2422 32.6913 39.3094 35.691 42.309C38.6906 45.3087 42.7578 46.9958 47 47ZM47 20.3333C49.1097 20.3333 51.172 20.9589 52.9261 22.131C54.6802 23.3031 56.0474 24.969 56.8547 26.9181C57.6621 28.8671 57.8733 31.0118 57.4617 33.081C57.0501 35.1501 56.0342 37.0507 54.5425 38.5425C53.0507 40.0342 51.1501 41.0501 49.081 41.4617C47.0118 41.8733 44.8671 41.6621 42.918 40.8547C40.969 40.0474 39.3031 38.6802 38.131 36.9261C36.9589 35.172 36.3333 33.1097 36.3333 31C36.3333 28.171 37.4571 25.4579 39.4575 23.4575C41.4579 21.4571 44.171 20.3333 47 20.3333Z" fill="white"/>
<path d="M47 52C40.6372 52.0078 34.5372 54.5388 30.038 59.038C25.5388 63.5372 23.0078 69.6371 23 75.9999C23 76.7072 23.281 77.3855 23.781 77.8855C24.2811 78.3856 24.9594 78.6666 25.6667 78.6666C26.3739 78.6666 27.0522 78.3856 27.5523 77.8855C28.0524 77.3855 28.3333 76.7072 28.3333 75.9999C28.3333 71.0492 30.3 66.3013 33.8007 62.8006C37.3014 59.3 42.0493 57.3333 47 57.3333C51.9507 57.3333 56.6986 59.3 60.1993 62.8006C63.7 66.3013 65.6667 71.0492 65.6667 75.9999C65.6667 76.7072 65.9476 77.3855 66.4477 77.8855C66.9478 78.3856 67.6261 78.6666 68.3333 78.6666C69.0406 78.6666 69.7189 78.3856 70.219 77.8855C70.7191 77.3855 71 76.7072 71 75.9999C70.9922 69.6371 68.4612 63.5372 63.962 59.038C59.4628 54.5388 53.3628 52.0078 47 52Z" fill="white"/>
</svg>
